<mxfile host="app.diagrams.net" modified="2021-07-03T02:31:05.262Z" agent="5.0 (Windows NT 10.0; Win64; x64) AppleWebKit/537.36 (KHTML, like Gecko) Chrome/91.0.4472.124 Safari/537.36" etag="m_YHbPkLXJ7fHjJFYvfA" version="14.8.3" type="github">
  <diagram id="RiXIHgaWRdFDcZtD8lHH" name="Page-1">
    <mxGraphModel dx="766" dy="450" grid="1" gridSize="10" guides="1" tooltips="1" connect="1" arrows="1" fold="1" page="1" pageScale="1" pageWidth="827" pageHeight="1169" math="0" shadow="0">
      <root>
        <mxCell id="0" />
        <mxCell id="1" parent="0" />
        <mxCell id="k7_yslUlbXB4682wcvTW-2" style="edgeStyle=orthogonalEdgeStyle;rounded=0;orthogonalLoop=1;jettySize=auto;html=1;" edge="1" parent="1">
          <mxGeometry relative="1" as="geometry">
            <mxPoint x="200" y="120" as="targetPoint" />
            <mxPoint x="160" y="120" as="sourcePoint" />
          </mxGeometry>
        </mxCell>
        <mxCell id="k7_yslUlbXB4682wcvTW-3" value="&#39;" style="swimlane;fontStyle=0;childLayout=stackLayout;horizontal=1;startSize=26;horizontalStack=0;resizeParent=1;resizeParentMax=0;resizeLast=0;collapsible=1;marginBottom=0;" vertex="1" parent="1">
          <mxGeometry x="20" y="60" width="140" height="110" as="geometry">
            <mxRectangle x="20" y="60" width="30" height="26" as="alternateBounds" />
          </mxGeometry>
        </mxCell>
        <mxCell id="k7_yslUlbXB4682wcvTW-35" value="&lt;font style=&quot;vertical-align: inherit&quot;&gt;&lt;font style=&quot;vertical-align: inherit&quot;&gt;&lt;font style=&quot;vertical-align: inherit&quot;&gt;&lt;font style=&quot;vertical-align: inherit&quot;&gt;Nome &lt;/font&gt;&lt;/font&gt;&lt;br&gt;&lt;font style=&quot;vertical-align: inherit&quot;&gt;&lt;font style=&quot;vertical-align: inherit&quot;&gt;Endereço &lt;/font&gt;&lt;/font&gt;&lt;br&gt;&lt;font style=&quot;vertical-align: inherit&quot;&gt;&lt;font style=&quot;vertical-align: inherit&quot;&gt;Telefone&amp;nbsp; &lt;/font&gt;&lt;/font&gt;&lt;br&gt;&lt;font style=&quot;vertical-align: inherit&quot;&gt;&lt;font style=&quot;vertical-align: inherit&quot;&gt;CPF&lt;/font&gt;&lt;/font&gt;&lt;br&gt;&lt;/font&gt;&lt;/font&gt;" style="text;html=1;strokeColor=none;fillColor=none;align=center;verticalAlign=middle;whiteSpace=wrap;rounded=0;" vertex="1" parent="k7_yslUlbXB4682wcvTW-3">
          <mxGeometry y="26" width="140" height="84" as="geometry" />
        </mxCell>
        <mxCell id="k7_yslUlbXB4682wcvTW-7" value="" style="rhombus;whiteSpace=wrap;html=1;" vertex="1" parent="1">
          <mxGeometry x="200" y="80" width="110" height="80" as="geometry" />
        </mxCell>
        <mxCell id="k7_yslUlbXB4682wcvTW-22" value="" style="edgeStyle=orthogonalEdgeStyle;rounded=0;orthogonalLoop=1;jettySize=auto;html=1;" edge="1" parent="1" source="k7_yslUlbXB4682wcvTW-9" target="k7_yslUlbXB4682wcvTW-16">
          <mxGeometry relative="1" as="geometry" />
        </mxCell>
        <mxCell id="k7_yslUlbXB4682wcvTW-9" value="Cadastro" style="swimlane;startSize=23;" vertex="1" parent="1">
          <mxGeometry x="360" y="70" width="109" height="130" as="geometry" />
        </mxCell>
        <mxCell id="k7_yslUlbXB4682wcvTW-44" value="&lt;font style=&quot;vertical-align: inherit&quot;&gt;&lt;font style=&quot;vertical-align: inherit&quot;&gt;Disciplina&amp;nbsp;&lt;br&gt;Horarios&lt;br&gt;&lt;/font&gt;&lt;/font&gt;" style="text;html=1;strokeColor=none;fillColor=none;align=center;verticalAlign=middle;whiteSpace=wrap;rounded=0;" vertex="1" parent="k7_yslUlbXB4682wcvTW-9">
          <mxGeometry x="30" y="45" width="40" height="20" as="geometry" />
        </mxCell>
        <mxCell id="k7_yslUlbXB4682wcvTW-10" style="edgeStyle=orthogonalEdgeStyle;rounded=0;orthogonalLoop=1;jettySize=auto;html=1;" edge="1" parent="1">
          <mxGeometry relative="1" as="geometry">
            <mxPoint x="360" y="120" as="targetPoint" />
            <mxPoint x="310" y="119.5" as="sourcePoint" />
            <Array as="points">
              <mxPoint x="340" y="120" />
              <mxPoint x="340" y="120" />
            </Array>
          </mxGeometry>
        </mxCell>
        <mxCell id="k7_yslUlbXB4682wcvTW-12" value="Funcionarios" style="swimlane;" vertex="1" parent="1">
          <mxGeometry x="10" y="260" width="120" height="110" as="geometry" />
        </mxCell>
        <mxCell id="k7_yslUlbXB4682wcvTW-45" value="&lt;font style=&quot;vertical-align: inherit&quot;&gt;&lt;font style=&quot;vertical-align: inherit&quot;&gt;Matricula&lt;br&gt;Nome&lt;br&gt;departamento&lt;br&gt;&lt;/font&gt;&lt;/font&gt;" style="text;html=1;strokeColor=none;fillColor=none;align=center;verticalAlign=middle;whiteSpace=wrap;rounded=0;" vertex="1" parent="k7_yslUlbXB4682wcvTW-12">
          <mxGeometry x="30" y="45" width="40" height="20" as="geometry" />
        </mxCell>
        <mxCell id="k7_yslUlbXB4682wcvTW-13" value="Cursos" style="swimlane;" vertex="1" parent="1">
          <mxGeometry x="351.75" y="350" width="127" height="120" as="geometry" />
        </mxCell>
        <mxCell id="k7_yslUlbXB4682wcvTW-16" value="" style="rhombus;whiteSpace=wrap;html=1;" vertex="1" parent="1">
          <mxGeometry x="350.25" y="230" width="128.5" height="90" as="geometry" />
        </mxCell>
        <mxCell id="k7_yslUlbXB4682wcvTW-18" value="" style="endArrow=classic;html=1;" edge="1" parent="1">
          <mxGeometry width="50" height="50" relative="1" as="geometry">
            <mxPoint x="414.75" y="320" as="sourcePoint" />
            <mxPoint x="414.75" y="350" as="targetPoint" />
            <Array as="points" />
          </mxGeometry>
        </mxCell>
        <mxCell id="k7_yslUlbXB4682wcvTW-19" value="&lt;font style=&quot;vertical-align: inherit&quot;&gt;&lt;font style=&quot;vertical-align: inherit&quot;&gt;&lt;font style=&quot;vertical-align: inherit&quot;&gt;&lt;font style=&quot;vertical-align: inherit&quot;&gt;1:n&lt;/font&gt;&lt;/font&gt;&lt;/font&gt;&lt;/font&gt;" style="text;html=1;strokeColor=none;fillColor=none;align=center;verticalAlign=middle;whiteSpace=wrap;rounded=0;" vertex="1" parent="1">
          <mxGeometry x="170" y="90" width="40" height="20" as="geometry" />
        </mxCell>
        <mxCell id="k7_yslUlbXB4682wcvTW-20" value="&lt;font style=&quot;vertical-align: inherit&quot;&gt;&lt;font style=&quot;vertical-align: inherit&quot;&gt;&lt;font style=&quot;vertical-align: inherit&quot;&gt;&lt;font style=&quot;vertical-align: inherit&quot;&gt;1:n&lt;/font&gt;&lt;/font&gt;&lt;/font&gt;&lt;/font&gt;" style="text;html=1;strokeColor=none;fillColor=none;align=center;verticalAlign=middle;whiteSpace=wrap;rounded=0;" vertex="1" parent="1">
          <mxGeometry x="310" y="100" width="40" height="20" as="geometry" />
        </mxCell>
        <mxCell id="k7_yslUlbXB4682wcvTW-21" value="&lt;font style=&quot;vertical-align: inherit&quot;&gt;&lt;font style=&quot;vertical-align: inherit&quot;&gt;&lt;font style=&quot;vertical-align: inherit&quot;&gt;&lt;font style=&quot;vertical-align: inherit&quot;&gt;&lt;font style=&quot;vertical-align: inherit&quot;&gt;&lt;font style=&quot;vertical-align: inherit&quot;&gt;&lt;font style=&quot;vertical-align: inherit&quot;&gt;&lt;font style=&quot;vertical-align: inherit&quot;&gt;1: n&lt;/font&gt;&lt;/font&gt;&lt;/font&gt;&lt;/font&gt;&lt;/font&gt;&lt;/font&gt;&lt;/font&gt;&lt;/font&gt;" style="text;html=1;strokeColor=none;fillColor=none;align=center;verticalAlign=middle;whiteSpace=wrap;rounded=0;" vertex="1" parent="1">
          <mxGeometry x="370" y="210" width="40" height="20" as="geometry" />
        </mxCell>
        <mxCell id="k7_yslUlbXB4682wcvTW-25" value="Aluno" style="swimlane;startSize=23;" vertex="1" parent="1">
          <mxGeometry x="550" y="60" width="109" height="130" as="geometry" />
        </mxCell>
        <mxCell id="k7_yslUlbXB4682wcvTW-43" value="&lt;font style=&quot;vertical-align: inherit&quot;&gt;&lt;font style=&quot;vertical-align: inherit&quot;&gt;&lt;font style=&quot;vertical-align: inherit&quot;&gt;&lt;font style=&quot;vertical-align: inherit&quot;&gt;Nome dos Alunos&lt;br&gt;&lt;/font&gt;&lt;/font&gt;&lt;br&gt;&lt;font style=&quot;vertical-align: inherit&quot;&gt;&lt;font style=&quot;vertical-align: inherit&quot;&gt;Nomes&amp;nbsp; &lt;/font&gt;&lt;/font&gt;&lt;br&gt;&lt;font style=&quot;vertical-align: inherit&quot;&gt;&lt;font style=&quot;vertical-align: inherit&quot;&gt;Responsáveis&lt;/font&gt;&lt;/font&gt;&lt;br&gt;&lt;/font&gt;&lt;/font&gt;" style="text;html=1;strokeColor=none;fillColor=none;align=center;verticalAlign=middle;whiteSpace=wrap;rounded=0;" vertex="1" parent="k7_yslUlbXB4682wcvTW-25">
          <mxGeometry x="30" y="60" width="40" height="15" as="geometry" />
        </mxCell>
        <mxCell id="k7_yslUlbXB4682wcvTW-30" value="" style="endArrow=none;html=1;" edge="1" parent="1">
          <mxGeometry width="50" height="50" relative="1" as="geometry">
            <mxPoint x="130" y="320" as="sourcePoint" />
            <mxPoint x="245" y="320" as="targetPoint" />
          </mxGeometry>
        </mxCell>
        <mxCell id="k7_yslUlbXB4682wcvTW-31" value="&lt;font style=&quot;vertical-align: inherit&quot;&gt;&lt;font style=&quot;vertical-align: inherit&quot;&gt;&#39;&lt;/font&gt;&lt;/font&gt;" style="endArrow=none;html=1;" edge="1" parent="1">
          <mxGeometry x="-1" y="51" width="50" height="50" relative="1" as="geometry">
            <mxPoint x="610" y="60" as="sourcePoint" />
            <mxPoint x="610" y="40" as="targetPoint" />
            <mxPoint x="1" y="10" as="offset" />
          </mxGeometry>
        </mxCell>
        <mxCell id="k7_yslUlbXB4682wcvTW-32" value="" style="endArrow=none;html=1;" edge="1" parent="1">
          <mxGeometry width="50" height="50" relative="1" as="geometry">
            <mxPoint x="90" y="40" as="sourcePoint" />
            <mxPoint x="610" y="40" as="targetPoint" />
          </mxGeometry>
        </mxCell>
        <mxCell id="k7_yslUlbXB4682wcvTW-33" value="" style="endArrow=none;html=1;" edge="1" parent="1">
          <mxGeometry width="50" height="50" relative="1" as="geometry">
            <mxPoint x="89.5" y="60" as="sourcePoint" />
            <mxPoint x="89.5" y="40" as="targetPoint" />
          </mxGeometry>
        </mxCell>
        <mxCell id="k7_yslUlbXB4682wcvTW-34" value="&lt;font style=&quot;vertical-align: inherit&quot;&gt;&lt;font style=&quot;vertical-align: inherit&quot;&gt;&#39;&lt;/font&gt;&lt;/font&gt;" style="endArrow=none;html=1;exitX=0.5;exitY=0;exitDx=0;exitDy=0;" edge="1" parent="1" source="k7_yslUlbXB4682wcvTW-9">
          <mxGeometry x="-1" y="51" width="50" height="50" relative="1" as="geometry">
            <mxPoint x="415" y="60" as="sourcePoint" />
            <mxPoint x="414.75" y="40" as="targetPoint" />
            <mxPoint x="1" y="10" as="offset" />
          </mxGeometry>
        </mxCell>
        <mxCell id="k7_yslUlbXB4682wcvTW-39" style="edgeStyle=orthogonalEdgeStyle;rounded=0;orthogonalLoop=1;jettySize=auto;html=1;" edge="1" parent="1">
          <mxGeometry relative="1" as="geometry">
            <mxPoint x="360" y="180" as="targetPoint" />
            <mxPoint x="240" y="210" as="sourcePoint" />
            <Array as="points">
              <mxPoint x="240" y="180" />
            </Array>
          </mxGeometry>
        </mxCell>
        <mxCell id="k7_yslUlbXB4682wcvTW-40" value="" style="rhombus;whiteSpace=wrap;html=1;" vertex="1" parent="1">
          <mxGeometry x="180" y="210" width="128.5" height="90" as="geometry" />
        </mxCell>
        <mxCell id="k7_yslUlbXB4682wcvTW-41" value="" style="endArrow=none;html=1;" edge="1" parent="1">
          <mxGeometry width="50" height="50" relative="1" as="geometry">
            <mxPoint x="245.25" y="320" as="sourcePoint" />
            <mxPoint x="245.25" y="300" as="targetPoint" />
          </mxGeometry>
        </mxCell>
        <mxCell id="k7_yslUlbXB4682wcvTW-49" value="Departamento" style="swimlane;fontStyle=0;childLayout=stackLayout;horizontal=1;startSize=26;horizontalStack=0;resizeParent=1;resizeParentMax=0;resizeLast=0;collapsible=1;marginBottom=0;" vertex="1" parent="1">
          <mxGeometry x="8.94" y="459" width="140" height="78" as="geometry" />
        </mxCell>
        <mxCell id="k7_yslUlbXB4682wcvTW-50" value="Código" style="text;strokeColor=none;fillColor=none;align=left;verticalAlign=top;spacingLeft=4;spacingRight=4;overflow=hidden;rotatable=0;points=[[0,0.5],[1,0.5]];portConstraint=eastwest;" vertex="1" parent="k7_yslUlbXB4682wcvTW-49">
          <mxGeometry y="26" width="140" height="26" as="geometry" />
        </mxCell>
        <mxCell id="k7_yslUlbXB4682wcvTW-51" value="Nome" style="text;strokeColor=none;fillColor=none;align=left;verticalAlign=top;spacingLeft=4;spacingRight=4;overflow=hidden;rotatable=0;points=[[0,0.5],[1,0.5]];portConstraint=eastwest;" vertex="1" parent="k7_yslUlbXB4682wcvTW-49">
          <mxGeometry y="52" width="140" height="26" as="geometry" />
        </mxCell>
        <mxCell id="k7_yslUlbXB4682wcvTW-53" value="Departamento de Chefes" style="swimlane;fontStyle=0;childLayout=stackLayout;horizontal=1;startSize=26;horizontalStack=0;resizeParent=1;resizeParentMax=0;resizeLast=0;collapsible=1;marginBottom=0;" vertex="1" parent="1">
          <mxGeometry x="187.5" y="561" width="165" height="104" as="geometry" />
        </mxCell>
        <mxCell id="k7_yslUlbXB4682wcvTW-54" value="Chefe 01" style="text;strokeColor=none;fillColor=none;align=left;verticalAlign=top;spacingLeft=4;spacingRight=4;overflow=hidden;rotatable=0;points=[[0,0.5],[1,0.5]];portConstraint=eastwest;" vertex="1" parent="k7_yslUlbXB4682wcvTW-53">
          <mxGeometry y="26" width="165" height="26" as="geometry" />
        </mxCell>
        <mxCell id="k7_yslUlbXB4682wcvTW-55" value="Chefe 02" style="text;strokeColor=none;fillColor=none;align=left;verticalAlign=top;spacingLeft=4;spacingRight=4;overflow=hidden;rotatable=0;points=[[0,0.5],[1,0.5]];portConstraint=eastwest;" vertex="1" parent="k7_yslUlbXB4682wcvTW-53">
          <mxGeometry y="52" width="165" height="26" as="geometry" />
        </mxCell>
        <mxCell id="k7_yslUlbXB4682wcvTW-56" value="Chefe 03" style="text;strokeColor=none;fillColor=none;align=left;verticalAlign=top;spacingLeft=4;spacingRight=4;overflow=hidden;rotatable=0;points=[[0,0.5],[1,0.5]];portConstraint=eastwest;" vertex="1" parent="k7_yslUlbXB4682wcvTW-53">
          <mxGeometry y="78" width="165" height="26" as="geometry" />
        </mxCell>
        <mxCell id="k7_yslUlbXB4682wcvTW-58" value="" style="endArrow=classic;html=1;" edge="1" parent="1">
          <mxGeometry width="50" height="50" relative="1" as="geometry">
            <mxPoint x="250" y="360" as="sourcePoint" />
            <mxPoint x="130" y="360" as="targetPoint" />
          </mxGeometry>
        </mxCell>
        <mxCell id="k7_yslUlbXB4682wcvTW-62" value="" style="rhombus;whiteSpace=wrap;html=1;" vertex="1" parent="1">
          <mxGeometry x="30" y="585" width="80" height="80" as="geometry" />
        </mxCell>
        <mxCell id="k7_yslUlbXB4682wcvTW-63" value="" style="endArrow=none;html=1;exitX=1;exitY=0.5;exitDx=0;exitDy=0;" edge="1" parent="1" source="k7_yslUlbXB4682wcvTW-62">
          <mxGeometry width="50" height="50" relative="1" as="geometry">
            <mxPoint x="110" y="600" as="sourcePoint" />
            <mxPoint x="150" y="625" as="targetPoint" />
            <Array as="points">
              <mxPoint x="150" y="625" />
              <mxPoint x="190" y="625" />
            </Array>
          </mxGeometry>
        </mxCell>
        <mxCell id="k7_yslUlbXB4682wcvTW-64" value="" style="endArrow=none;html=1;entryX=0.436;entryY=1.192;entryDx=0;entryDy=0;entryPerimeter=0;" edge="1" parent="1" target="k7_yslUlbXB4682wcvTW-51">
          <mxGeometry width="50" height="50" relative="1" as="geometry">
            <mxPoint x="70" y="585" as="sourcePoint" />
            <mxPoint x="80" y="542" as="targetPoint" />
          </mxGeometry>
        </mxCell>
        <mxCell id="k7_yslUlbXB4682wcvTW-67" value="&lt;font style=&quot;vertical-align: inherit&quot;&gt;&lt;font style=&quot;vertical-align: inherit&quot;&gt;&lt;font style=&quot;vertical-align: inherit&quot;&gt;&lt;font style=&quot;vertical-align: inherit&quot;&gt;&lt;font style=&quot;vertical-align: inherit&quot;&gt;&lt;font style=&quot;vertical-align: inherit&quot;&gt;&lt;font style=&quot;vertical-align: inherit&quot;&gt;&lt;font style=&quot;vertical-align: inherit&quot;&gt;&lt;font style=&quot;vertical-align: inherit&quot;&gt;&lt;font style=&quot;vertical-align: inherit&quot;&gt;&lt;font style=&quot;vertical-align: inherit&quot;&gt;&lt;font style=&quot;vertical-align: inherit&quot;&gt;1: 1&lt;/font&gt;&lt;/font&gt;&lt;/font&gt;&lt;/font&gt;&lt;/font&gt;&lt;/font&gt;&lt;/font&gt;&lt;/font&gt;&lt;/font&gt;&lt;/font&gt;&lt;/font&gt;&lt;/font&gt;" style="text;html=1;strokeColor=none;fillColor=none;align=center;verticalAlign=middle;whiteSpace=wrap;rounded=0;" vertex="1" parent="1">
          <mxGeometry x="180" y="340" width="40" height="20" as="geometry" />
        </mxCell>
        <mxCell id="k7_yslUlbXB4682wcvTW-70" value="&lt;font style=&quot;vertical-align: inherit&quot;&gt;&lt;font style=&quot;vertical-align: inherit&quot;&gt;&lt;font style=&quot;vertical-align: inherit&quot;&gt;&lt;font style=&quot;vertical-align: inherit&quot;&gt;&lt;font style=&quot;vertical-align: inherit&quot;&gt;&lt;font style=&quot;vertical-align: inherit&quot;&gt;&lt;font style=&quot;vertical-align: inherit&quot;&gt;&lt;font style=&quot;vertical-align: inherit&quot;&gt;&lt;font style=&quot;vertical-align: inherit&quot;&gt;&lt;font style=&quot;vertical-align: inherit&quot;&gt;&lt;font style=&quot;vertical-align: inherit&quot;&gt;&lt;font style=&quot;vertical-align: inherit&quot;&gt;1: 1&lt;/font&gt;&lt;/font&gt;&lt;/font&gt;&lt;/font&gt;&lt;/font&gt;&lt;/font&gt;&lt;/font&gt;&lt;/font&gt;&lt;/font&gt;&lt;/font&gt;&lt;/font&gt;&lt;/font&gt;" style="text;html=1;strokeColor=none;fillColor=none;align=center;verticalAlign=middle;whiteSpace=wrap;rounded=0;" vertex="1" parent="1">
          <mxGeometry x="30" y="430" width="40" height="20" as="geometry" />
        </mxCell>
        <mxCell id="k7_yslUlbXB4682wcvTW-71" value="&lt;font style=&quot;vertical-align: inherit&quot;&gt;&lt;font style=&quot;vertical-align: inherit&quot;&gt;&lt;font style=&quot;vertical-align: inherit&quot;&gt;&lt;font style=&quot;vertical-align: inherit&quot;&gt;&lt;font style=&quot;vertical-align: inherit&quot;&gt;&lt;font style=&quot;vertical-align: inherit&quot;&gt;&lt;font style=&quot;vertical-align: inherit&quot;&gt;&lt;font style=&quot;vertical-align: inherit&quot;&gt;&lt;font style=&quot;vertical-align: inherit&quot;&gt;&lt;font style=&quot;vertical-align: inherit&quot;&gt;&lt;font style=&quot;vertical-align: inherit&quot;&gt;&lt;font style=&quot;vertical-align: inherit&quot;&gt;1: 1&lt;/font&gt;&lt;/font&gt;&lt;/font&gt;&lt;/font&gt;&lt;/font&gt;&lt;/font&gt;&lt;/font&gt;&lt;/font&gt;&lt;/font&gt;&lt;/font&gt;&lt;/font&gt;&lt;/font&gt;" style="text;html=1;strokeColor=none;fillColor=none;align=center;verticalAlign=middle;whiteSpace=wrap;rounded=0;" vertex="1" parent="1">
          <mxGeometry x="120" y="575" width="40" height="20" as="geometry" />
        </mxCell>
        <mxCell id="k7_yslUlbXB4682wcvTW-72" value="&lt;font style=&quot;vertical-align: inherit&quot;&gt;&lt;font style=&quot;vertical-align: inherit&quot;&gt;&lt;font style=&quot;vertical-align: inherit&quot;&gt;&lt;font style=&quot;vertical-align: inherit&quot;&gt;&lt;font style=&quot;vertical-align: inherit&quot;&gt;&lt;font style=&quot;vertical-align: inherit&quot;&gt;&lt;font style=&quot;vertical-align: inherit&quot;&gt;&lt;font style=&quot;vertical-align: inherit&quot;&gt;&lt;font style=&quot;vertical-align: inherit&quot;&gt;&lt;font style=&quot;vertical-align: inherit&quot;&gt;&lt;font style=&quot;vertical-align: inherit&quot;&gt;&lt;font style=&quot;vertical-align: inherit&quot;&gt;1: 1&lt;/font&gt;&lt;/font&gt;&lt;/font&gt;&lt;/font&gt;&lt;/font&gt;&lt;/font&gt;&lt;/font&gt;&lt;/font&gt;&lt;/font&gt;&lt;/font&gt;&lt;/font&gt;&lt;/font&gt;" style="text;html=1;strokeColor=none;fillColor=none;align=center;verticalAlign=middle;whiteSpace=wrap;rounded=0;" vertex="1" parent="1">
          <mxGeometry x="150" y="300" width="40" height="20" as="geometry" />
        </mxCell>
        <mxCell id="k7_yslUlbXB4682wcvTW-73" value="&lt;font style=&quot;vertical-align: inherit&quot;&gt;&lt;font style=&quot;vertical-align: inherit&quot;&gt;&lt;font style=&quot;vertical-align: inherit&quot;&gt;&lt;font style=&quot;vertical-align: inherit&quot;&gt;&lt;font style=&quot;vertical-align: inherit&quot;&gt;&lt;font style=&quot;vertical-align: inherit&quot;&gt;&lt;font style=&quot;vertical-align: inherit&quot;&gt;&lt;font style=&quot;vertical-align: inherit&quot;&gt;&lt;font style=&quot;vertical-align: inherit&quot;&gt;&lt;font style=&quot;vertical-align: inherit&quot;&gt;&lt;font style=&quot;vertical-align: inherit&quot;&gt;&lt;font style=&quot;vertical-align: inherit&quot;&gt;1: 1&lt;/font&gt;&lt;/font&gt;&lt;/font&gt;&lt;/font&gt;&lt;/font&gt;&lt;/font&gt;&lt;/font&gt;&lt;/font&gt;&lt;/font&gt;&lt;/font&gt;&lt;/font&gt;&lt;/font&gt;" style="text;html=1;strokeColor=none;fillColor=none;align=center;verticalAlign=middle;whiteSpace=wrap;rounded=0;" vertex="1" parent="1">
          <mxGeometry x="290" y="160" width="40" height="20" as="geometry" />
        </mxCell>
        <mxCell id="k7_yslUlbXB4682wcvTW-74" value="&lt;font style=&quot;vertical-align: inherit&quot;&gt;&lt;font style=&quot;vertical-align: inherit&quot;&gt;&lt;font style=&quot;vertical-align: inherit&quot;&gt;&lt;font style=&quot;vertical-align: inherit&quot;&gt;&lt;font style=&quot;vertical-align: inherit&quot;&gt;&lt;font style=&quot;vertical-align: inherit&quot;&gt;&lt;font style=&quot;vertical-align: inherit&quot;&gt;&lt;font style=&quot;vertical-align: inherit&quot;&gt;1: n&lt;/font&gt;&lt;/font&gt;&lt;/font&gt;&lt;/font&gt;&lt;/font&gt;&lt;/font&gt;&lt;/font&gt;&lt;/font&gt;" style="text;html=1;strokeColor=none;fillColor=none;align=center;verticalAlign=middle;whiteSpace=wrap;rounded=0;" vertex="1" parent="1">
          <mxGeometry x="370" y="330" width="40" height="20" as="geometry" />
        </mxCell>
        <mxCell id="k7_yslUlbXB4682wcvTW-76" value="" style="rhombus;whiteSpace=wrap;html=1;" vertex="1" parent="1">
          <mxGeometry x="195.25" y="360" width="113.25" height="120" as="geometry" />
        </mxCell>
        <mxCell id="k7_yslUlbXB4682wcvTW-77" value="" style="endArrow=none;html=1;entryX=0.5;entryY=1;entryDx=0;entryDy=0;" edge="1" parent="1" target="k7_yslUlbXB4682wcvTW-76">
          <mxGeometry width="50" height="50" relative="1" as="geometry">
            <mxPoint x="253" y="560" as="sourcePoint" />
            <mxPoint x="330" y="430" as="targetPoint" />
          </mxGeometry>
        </mxCell>
        <mxCell id="k7_yslUlbXB4682wcvTW-78" value="&lt;font style=&quot;vertical-align: inherit&quot;&gt;&lt;font style=&quot;vertical-align: inherit&quot;&gt;&lt;font style=&quot;vertical-align: inherit&quot;&gt;&lt;font style=&quot;vertical-align: inherit&quot;&gt;&lt;font style=&quot;vertical-align: inherit&quot;&gt;&lt;font style=&quot;vertical-align: inherit&quot;&gt;&lt;font style=&quot;vertical-align: inherit&quot;&gt;&lt;font style=&quot;vertical-align: inherit&quot;&gt;&lt;font style=&quot;vertical-align: inherit&quot;&gt;&lt;font style=&quot;vertical-align: inherit&quot;&gt;&lt;font style=&quot;vertical-align: inherit&quot;&gt;&lt;font style=&quot;vertical-align: inherit&quot;&gt;1: 1&lt;/font&gt;&lt;/font&gt;&lt;/font&gt;&lt;/font&gt;&lt;/font&gt;&lt;/font&gt;&lt;/font&gt;&lt;/font&gt;&lt;/font&gt;&lt;/font&gt;&lt;/font&gt;&lt;/font&gt;" style="text;html=1;strokeColor=none;fillColor=none;align=center;verticalAlign=middle;whiteSpace=wrap;rounded=0;" vertex="1" parent="1">
          <mxGeometry x="250" y="500" width="40" height="20" as="geometry" />
        </mxCell>
        <mxCell id="k7_yslUlbXB4682wcvTW-79" value="&lt;font style=&quot;vertical-align: inherit&quot;&gt;&lt;font style=&quot;vertical-align: inherit&quot;&gt;&lt;font style=&quot;vertical-align: inherit&quot;&gt;&lt;font style=&quot;vertical-align: inherit&quot;&gt;&lt;font style=&quot;vertical-align: inherit&quot;&gt;&lt;font style=&quot;vertical-align: inherit&quot;&gt;&lt;font style=&quot;vertical-align: inherit&quot;&gt;&lt;font style=&quot;vertical-align: inherit&quot;&gt;&lt;font style=&quot;vertical-align: inherit&quot;&gt;&lt;font style=&quot;vertical-align: inherit&quot;&gt;&lt;font style=&quot;vertical-align: inherit&quot;&gt;&lt;font style=&quot;vertical-align: inherit&quot;&gt;1: 1&lt;/font&gt;&lt;/font&gt;&lt;/font&gt;&lt;/font&gt;&lt;/font&gt;&lt;/font&gt;&lt;/font&gt;&lt;/font&gt;&lt;/font&gt;&lt;/font&gt;&lt;/font&gt;&lt;/font&gt;" style="text;html=1;strokeColor=none;fillColor=none;align=center;verticalAlign=middle;whiteSpace=wrap;rounded=0;" vertex="1" parent="1">
          <mxGeometry x="90" y="541" width="40" height="20" as="geometry" />
        </mxCell>
        <mxCell id="k7_yslUlbXB4682wcvTW-80" value="" style="rhombus;whiteSpace=wrap;html=1;" vertex="1" parent="1">
          <mxGeometry x="47.879999999999995" y="390" width="62.12" height="50" as="geometry" />
        </mxCell>
        <mxCell id="k7_yslUlbXB4682wcvTW-81" value="" style="endArrow=none;html=1;" edge="1" parent="1">
          <mxGeometry width="50" height="50" relative="1" as="geometry">
            <mxPoint x="78.44" y="390" as="sourcePoint" />
            <mxPoint x="78.44" y="370" as="targetPoint" />
          </mxGeometry>
        </mxCell>
        <mxCell id="k7_yslUlbXB4682wcvTW-83" value="" style="endArrow=none;html=1;" edge="1" parent="1">
          <mxGeometry width="50" height="50" relative="1" as="geometry">
            <mxPoint x="78.44" y="459" as="sourcePoint" />
            <mxPoint x="78.44" y="439" as="targetPoint" />
            <Array as="points" />
          </mxGeometry>
        </mxCell>
        <mxCell id="k7_yslUlbXB4682wcvTW-84" value="&lt;font style=&quot;vertical-align: inherit&quot;&gt;&lt;font style=&quot;vertical-align: inherit&quot;&gt;&lt;font style=&quot;vertical-align: inherit&quot;&gt;&lt;font style=&quot;vertical-align: inherit&quot;&gt;&lt;font style=&quot;vertical-align: inherit&quot;&gt;&lt;font style=&quot;vertical-align: inherit&quot;&gt;&lt;font style=&quot;vertical-align: inherit&quot;&gt;&lt;font style=&quot;vertical-align: inherit&quot;&gt;&lt;font style=&quot;vertical-align: inherit&quot;&gt;&lt;font style=&quot;vertical-align: inherit&quot;&gt;&lt;font style=&quot;vertical-align: inherit&quot;&gt;&lt;font style=&quot;vertical-align: inherit&quot;&gt;1: 1&lt;/font&gt;&lt;/font&gt;&lt;/font&gt;&lt;/font&gt;&lt;/font&gt;&lt;/font&gt;&lt;/font&gt;&lt;/font&gt;&lt;/font&gt;&lt;/font&gt;&lt;/font&gt;&lt;/font&gt;" style="text;html=1;strokeColor=none;fillColor=none;align=center;verticalAlign=middle;whiteSpace=wrap;rounded=0;" vertex="1" parent="1">
          <mxGeometry x="40" y="370" width="40" height="20" as="geometry" />
        </mxCell>
        <mxCell id="k7_yslUlbXB4682wcvTW-85" value="&lt;font style=&quot;vertical-align: inherit&quot;&gt;&lt;font style=&quot;vertical-align: inherit&quot;&gt;Professor&lt;/font&gt;&lt;/font&gt;" style="text;html=1;strokeColor=none;fillColor=none;align=center;verticalAlign=middle;whiteSpace=wrap;rounded=0;" vertex="1" parent="1">
          <mxGeometry x="70" y="60" width="40" height="20" as="geometry" />
        </mxCell>
        <mxCell id="k7_yslUlbXB4682wcvTW-86" value="" style="shape=image;verticalLabelPosition=bottom;labelBackgroundColor=#ffffff;verticalAlign=top;aspect=fixed;imageAspect=0;image=data:image/png,iVBORw0KGgoAAAANSUhEUgAAAwQAAAFmCAYAAADTWF2aAAAAAXNSR0IArs4c6QAAAARnQU1BAACxjwv8YQUAAAAJcEhZcwAADsMAAA7DAcdvqGQAAEooSURBVHhe7ZldziU9rFbfqTAZmAnXIMQMuGckSMyASbSQkLhkCNwfcPexPm+3nZ/aqR+n1pIe7cRxUim7kqpo//zLJL9+/frXEuxMlTzzPN4POchhHdWEeOwBeexDjNZRfb/nQAAh1R9suA5ykMM6qgnx2APy2IcYraP6fs+BAEKqP9hwHeQgh3VUE+KxB+SxDzFaR/X9/kcaZvTz84MQQh+K9gpUR1FOEUIIzSnaX6to+h8CueH/+b//D9pc5BmNSp4ViJFNtgLk8BOJx3/4b/8OFRfPdR9itI4qsczeS9OzlxuOPgrQXiLPaFS8UHI4ENRE4hF9YKJa4rnuQ4zWUSWWpx8IxK6K7NaGnq8sj9bu63do5Rx0LK/IF/0jiRHEcCCoicQj+sA8W7rnWEV+LR3ps6skFtCGGK2jSiw5EKApZXm0dl+/QyvnEI21cvxqGr138YEYDgQ1kXhEH5hnK7ruzFzumvdTxXPdhxito0osTz0QiE3tthzVUQ35nGkebT5t+S6tnEM01srxd5XEB2I4ENRE4hF9YJ6t6Lozc7lr3k8Vz3UfYrSOKrF8xIFgpM1K/aJ224bWayT+tpz5RHYr9Wn19/J+1jez99pse8umdW/P2rxN7a0+K/t5uy+P9un5QQwHgppIPKIPzLMVXVdt8mvbtR7ZWj6ZfdbW8mnZr5RcG9oQo3VUiWWZA8FsGzpHPr425lqObC3/0XJUz+y2PtMWSX28fHtU922Rj6+vasuU9cnKM35WYocYDgQ1kXhEH5hnS9eZlW2LyrY+6+PbWrao/4jPnZJ5QBtitI4qsTztQCD1TLbdl1e1oXPk42tjruXI1vIfKXtJm5W323qrzdatzSpqszYte3nfyBbVj7bZurV5u23vlb28n/dVm9ohhgNBTSQe0Qfm2Wpd17Z5P617Hy/fpvXIFrV7u/ax8m1av0NyfWhDjNZRJZanHwgyW68ctbX6RXW0Xj6+WQ7UlrUfKbfk/Wy91WY1Y7e2qD1Sq8+KNitr9z5ZveVjlbV5u5QhhgNBTSQe0Qfm2Wpd17Z5P623fCJFPtFYmT3q7zXic5bk2tCGGK2jSiwfcSCwdauWX9ZP7egc+Rj7uGs9s0X2VtnWvd3L+1nfWbtV1OZtWj9qt20j/aK6lq3N+0XtkS3q4+0tH22DGA4ENZF4RB+YZ6t1Xd8mddWsz4it5Tvi4213SK4PbYjROqrE8rQDAdpT5HmNJI67x7LKJngHHAhqIvGIPjBRLfFc9yFG66gSSw4EaErkeY0kjrvHssomeAccCGoi8Yg+MFEt8Vz3IUbrqBLL9EAgDTOSG0YIIator0B1FOUUIYTQnKL9tYqmjzNyw7A/5BlG4VnJkU22AuTwE+KxB+SxDzFaR5VYZu+l6dnz8LwD8gyj8KzkcCCoCfHYA/LYhxito0osTzsQSH3Etgod+8xrwP15HkGvf/c83g6xz3n7gSBamxWel6fNUeNoNcOs/y6sum8bd1WLXrsw4nMFT5qHleLto213cPf1R3n0gWDUN/KbuQ6M4+Mq9RHbVUTXvWsub4e453AgiPeNp/O0OX47nwoxP4PV9z06Xs/vSfl4wlyiOahttu1OnjafjFMPBK3flawa84y57YaPkc+r/72aVde9a/47QQxzOBD8GdeOX+F5edocv51PhZifwer7Hh2v5/ekfDxhLq05RG1qe1IchafNJ+PWA4GUVYqtR3ZrUyKbJevr7d7Ht8PfsdZ69itIWaVkdWsTjthbtPpZu/fx7dCHWOVwIPhnnSm+rFKszcqS2Vdx1rhHsfdr55bZhaytZVMiH2HWfjer5xONF927L0ftoz7eLmT2I6wY41tac4ja1Ca/VnfzhDmMcPqBQMjKFrVHvr5Pr27JfKM+M+O8lSyeQla2qL3lG/kImd0y09Ya7+g14B+IUw4Hgn/G1bL/VSJ7VM76reSMMb8hm08Wi2/s3/QVfP1OVs+ld69a979KZB/xEXr2o3zbfwWtOUibl2LLT+Bp88m49UAgZSu1KZFN6NUtLV8p+7pF273fm4lipLTKVmpTbNni7b5P1C8bS5gZL/K1gj7EKYcDwd9rzf8qkT0qy6/Xas4Y8xuy+Xi71lt2L7Urvl3b9Nfj7ZnfHayeS3SvXmrXXy+1K7YsRD6CtXt9w7f9V9Caw9G2O3jafDIuORBY1J75W3vPV/F1YbSvEPmO9Hsjo3FRe+Zv7SM+gq8LMz5HfUf6wd8QpxwOBH+vKbVFbfZXiMq+3xlccY0Zsvl4exajzK5Y+4iPkI2Z9b+D1XMZvVe199qFbMxR+7esHu8I0RxG7vcJc7c8bT4Ztx0IBClbqU3xZevnse3eJ7JHNiHz8X5vxcchi4u1a/xUarP4diWyRzaLbfc+kT2yCZmP94MY4pTDgeDvtWZtWvc2pVVWncFZ4x7F3q9K7RZbt76ZXbFlIfIRZu13s3o+0XjRvftyq10Y9VEi/6OsGGMF9p7snFrza7XdwdPmk3HagQD2hDzDKDwrOW8/EFSFeORUig157EOM1lEllhwIYAryDKPwrORwIKgJ8YiRuFSKDXnsQ4zWUSWW6YFAGmakGwJCCKmivQLVUZRThBBCc4r21yqaPs7IDcP+kGcYhWclRzbZCpDDT4jHHpDHPsRoHVVimb2XpmfPw/MOyDOMwrOSw4GgJsRjD8hjH2K0jiqxPO1AIHWvWY70EXrXPToutGN3VVw1r1aKLcO9kIucnQ8EuiZVniNjRoyOo34rrrtq7iuQuXit5owxn8DMfVlfjbOVEtmEKnZPqz0bI7MLkU3I+szaIzKfb8ds+Ub2kXGfwKkHAs9sUI4EsXVd/wvztGJ3RVyza/jcHpnLFfN/E8QzZ9cDQeSvNv/7LSPj3HHNq/hmLqN9M78nxeEIM/ff8tU271PNHpG1zY4tvypPq4+lZ4+Qtqjd271P1Efp+Uo96t8a80m84kDgOTIu/KEVuyviml1D7eT2OZCLnDcdCDyrnos7nq8nPdNXzOVJ97uSkftSn8zX2r1Pr8/T/CNabZbRsUfGGx1L6dl9e2a3zLTZemvs1phP4rYDgZRVFmvXNlsWfLvHtlsfLftfwZdV8EkrJr0YZvWW3RPZBLVnv4IvqxQtR3Zvgz7EK2fXA4Fg14vtr2X/K/iyqsVIn1l7j1n/M7H34OcV2W09slubEtkEtdu+VpbMfie9udj2zLflE/V5sn9Er13IfGavJ20zYwkj9pGyIrbIbvHtWrf2aIzeuE/h1AOBl2LLgtZH7JlPCz+O/xWycTL7W2nFI4qrENlHfIReXfH9/a8Q2YRWH0+rDT4hVjk7Hwg8fl35XyG7TmYXonGE3lij/hEzvmczOpfovrO+3t7zy8bs9bub3jx69+Jt1esRPZ+sfdZu8T5HxrJtI2WPtsmvldoskd37CJHtiVz6D4EibV5qt0T2zKeFH8f/Cr5sBf/g42HrWs58Il/F+nhZfF1Re/YrWJuX2u2vYv18G+QQqxwOBJ9j+7KVxfvZX8X7WKnN4ustZnzPpjUXabNSm+LLVhZfV9Ru21tlqyfQm4efs/efqfs24Wn+ES2/rO1IH4v1OXINQdq9WnZPZhd8m9Z1PCuLrz+V2w4EEdkY1p75KL4u+HGsj5R93eLrb6cVHy1nPpGvkvX1ZO2+v/WTsq9HZH0tWV/4G2KVs+uBIPJXm/8VpOzrllZdy5nPrH2EGd+zyeaS3Z+1RzahV1ei/lHZ9/f1u5iZR+Tbuy+tZ9d5mn/E6NhKb+yo3du0fvQanpFxvE/rGiO+o7YncsuBQJB2lcXata3lE2HbrY+Wvc3WBbVFbW8nikcUJ7VZe8vH+3mbxbZ7Py17m60LavN+9lexvr4NcohVzs7/ENi1Yvtr2dtsXVBb1CZE9szf2m1bZBth1v9MWnOx96d+1t+XrSy+Tdv9r9AqWz2BmXlEvplNpVhbq02xtlabYm2tNsXafJsna/P91S+zK1qP7N7f2mxbyx4xatexMn9Lzzeyj4z7BE47EMCenJVnnp/9IKc5Ox8IdoZ47AF57EOM1lEllhwIYIpVeZZxrGA/yGsOB4KaEI89II99iNE6qsQyPRBIw4zkhhFCyCraK1AdRTlFCCE0p2h/raLp44zcMOwPeYZReFZyZJOtADn8hHjsAXnsQ4zWUSWW2XtpevY8PO+APMMoPCs5HAhqQjz2gDz2IUbrqBLLSw4Eo8FQv9ngib/vMzvGCu645tVEcfb6hiP9/fWPjAHrIQ85VQ8E0fqKbKvQsa0UW76KVde096O6iruv/QRm5xHFytpabZan2VvM+Cq2T+uarbF9W69usW1SVlkye0Tmm9kzRv3u5jEHAvU5Ejjp4/sdGedb7rjm1YzE+Zs4HOl7ZdyvvFZ1iFXOmw8Eo76Zn9r97wxH+ghH+3micVaN3SK7xhXXFq66To+ZeXhfrWdjjPrfbe8x6ieIr0rrFmu3fhbf1qtbfJv36dkjVoyhjPg8gUf9Q3AEO3ZWvoo7rnk1/h6je/4mDkf6viHuFSEvOZUPBK3flWRjnnnNHquuGY1zdOyZfnfEzHL39ZVvYqb1bIxR/7vtPUb9LFmfmTn0fGf6KrP2iG/GmLnOnVx+IJCyyjJrV6y9VVYps76RXYjabFnw7ZXx9xDdk9r8PWvd2gRr1zZbFny7xbbZ9qye2axdiOy+HLV7m5DZd+ZN9zrLzgcCKasUW4/s1qZENkHt2a/gyypFy5Hd2yyZfRZ7HZUlsltbZFciHyWyeaL+1mbtwoxdy5FNUH9rEzL7UWbHia5vbd5u0frT7D1G/SxRn1Gb4tt6dUvkG/ln9oiW78wYFbj0QOB9sj4z/tYWlbMxsn6WmTGEyJ75VCW6Hy8lKwtaH7FnPoqvK5ld0LZsrJ7dtwu9PkrUd0fecp9HqH4gELKyRe0zvsromP5XiGxCq48namv5z9Aa27fN2DMfJaqrtG45avd4f+sX2YTMvoKZMbN5ebL5PtXeY9TPMnqt1ti9MWb6Kj27/FpFeHvmFzHjeyenHQhsXcs9Hyu1WaJ6JG3TXy/F1wXrp22Rj/1VIruUvSrj59+6H9um926ldktkz3wUX1ciPyu1WTK7Yu1S9vUIb8/8duMt93mEnQ8EUrZSm+LLVhZfV9Se/QrW5qV2+6tYP98mRLYjtMbWa1up3RLZMx/F15VoLGHWbpE2K7XZX8HavBRf/5aZsbxv1lftmf/T7D1G/Sy2T6v/TFuvbsnaZu0R1nemnzDrfxePOBDM2hVfF3zfyEew9sx3hd37VCe754iROGTjtfr26srIGN/ahdk+0Rg78pb7PMIOBwKL2jN/a+/5Kr6u+P7WT8q+HpH1tUR9s/FmaY2dXcPbI//MR/F1JRpLONMuZV/vMeIzwsw43lfr1e09Rv0s2TU9rXbf1qtbtC3rc2QsJRtjhCN97uC0A4EgNm9XW8tu2yKb0rLZNu3vbUrmq3bbLti69VW7bRd8e2Wie8uIfFUWa9e2lo8nsgmtMbQt8lG8r6DlqE2Yte/Mm+51ll0PBIKUrdSm+LKVx7dbHy17m60LavN+9lexvr5NiGxH8Nfx40b2yEfxZVWEbY/8Invko0T+grVrm/WxdkVtkZ+1fcvsWNkcqttbzPgq2sdeT2XRurcLma8y2lfKKktmj4h8rc23ZYz4PIFTDwSwH+QZRuFZyal6IHg7xCOmWlzIYx9itI4qseRAAFOQZxiFZyWHA0FNiMffSEyqxYU89iFG66gSy/RAIA0z0k0BIYRU0V6B6ijKKUIIoTlF+2sVTR9n5IZhf8gzjMKzkiObbAXI4SfEYw/IYx9itI4qsczeS9Oz5+F5B+QZRuFZyeFAUBPisQfksQ8xWkeVWJ52IJC615mMju/nNNoP/uDj5WPp2yNGfFbg53XVdeEPxDtnlwOBXVvf5Fv7jo5hr6k6ykzfb67zJHa5j6Nk9y92lWWVXRnxt7ZWm2JtrTZLZhciW4vRsVp+lpE+md1j21t9euMI3udIn6dy6oHAo7YzgjM65jfXPmPe1fAxiGLSi9NVcfzmOlfNcWeIYc4OB4KoTW0zuf+mj2Wmv+Xb61ZkNH673K9n5F61vsquSN3aMn9vV87y79VbtK6h0rrF14XRPpndIjaV1i3Wbv0ivI+vtxjxeQK3HAjOYHTsKol5Kivy/E0OZvp+cx34HuKfs+uB4Cqiax+dz0y/O+95Jbvcx1FG7l99vG/Wd8Q/8sn8vV05y79XbzE61sw1en1WjqW0xlBW9Hkqt/9DIGWVJbJn9ZbdY9t8e2S39chubW/A3290/9amMcps1i5EdlvP2qxNsW2+PbLbemS3NuhDvHJ2OBAIdm1YXy37dpVl1i70bFFf30fr3kcVkdmrofdh77Vns/h6NVrzlzbb3rt37y+ozbZZH1sWvK9gbdYuRHZr83aL1jO74ustRseauUavz8qxlNYYyoo+T+XUA4GXomVrE3xdifyzvpld8fWMaLys7+iYO+DvVepeii0LWv/GnpWFXj1D/VpjK6NjArFqscuBwKP+/lfIypaonxDVvTK0zft4e9ZuiWwVie551Cb4ejVG5j977z27bc/Kwsw4wlH/3ji+3mJ0rJlr9PqsHEuxflaWXj1ixOcJ3PoPQStI0malNsWWhchH6NUt0malNsWXrd6Cv9fo3tWW+bbsXmpXsrLQq1ukzUptii9bwRjEKocDwWfZSm2WXt2jY6nUZvH2rN0S2SoS3fOoTfD1aozMf/bee3b59VK7xdeV1f69cXy9xehYM9fo9Vk5ltIaQ1nR56k86kAwY5/tq/i6MjJeZBN8fWdG7r0Xp1G7Yu1ZWejVlczP2iOb4OuQQ6xydjgQRG1q879CVLY2oWdXfN0yMqaUvd22C74uRLaKRPc8Y7P1ikTz9zatr7JbrG12nLPtiq+3GB1r5hq9PivHUlpjKCv6PJVbDwSClFUWa9e2ER8hsimRTbH91M/6+7LVW/D3Gt27tWl8Mpu1C5E98lEifyWyKbaf+ll/X7aCMYhVzi7/ENh1YX21HNkEX7ZSIpsS2Sy2r/W1df8raLu1WTJ7NfQ+7P20bIKUI5+KZPPXe/Ttq+zKqP9ddiGytRgdK/I70keI7N5H8O2+jxLZPN7nSJ+nctqBAPaEPMMoPCs5uxwI3gbx2APy2IcYraNKLDkQwBTkGUbhWcnhQFAT4rEH5LEPMVpHlVimBwJpmJHcMEIIWUV7BaqjKKcIIYTmFO2vVTR9nJEbhv0hzzAKz0qObLJQD57pPSCPfYjROqrEMnsvTc+eh+cdkGcYhWclhwNBTXim94A89iFG66gSy9MOBFL3atFrn6F33ZXXehut2F0dV82vynP1fOAT4p9T6UBg15jqCczMozf/0bFG/c7C3oNqliN9LKP91e/b651BNiexqyyZXTnD39pabYq1+TbF22Z8PVn7rF2QNlXEqjGtzbZl9ojMN7MLtvxkTj0QzKD+3wYu6u/H/vYab6YVuyvjGl3L5/fK+cDfEP+cKgeCLIdPyO3oHCI/tfnfHqN+Z9G6l1G+vYeR/urz7bXOIpqXt2X3ENWtbZW/tyuz/oq0W59sHKU1nh9LmbUL3h7Vo76ZXYjGsL+ezD7CyJjfjH8ljzsQfMvIOFWS80RasbsyruT5+RD/nOoHgicwOreVe8Xd8YiuPzunb+/h7hisYOQe1Mf72nrks8rf25VZfyHyycZRsvGisYRZe4b1Wz1m5j86jmd0vKPjX82pBwIrS2TXsv21smR2xbZbHy37X8GXVfBJKya9GFqbtQuzdsG22XYt+1/Bl1WwHuKas9OBIFpH1mZlmbULts22RzaLbbc+Wva/gi+r7iS6/sg8rV3bbFnw7RkjfWbtV9O7fmve2mZ9bFmwvtpmfWxZ8L6CtVm7ELVFNmGkLPTqwshYI+UIaZ8dx5YjpN37WymZvUfm6+0zY97J5f8QZH7Zr9Kzt/B9o7GycTL7W2nFI4qr0LN7Mv8evl80TjZmZofjENOcqgcCqau0bonsUXmknyfr42mNofjr+V8hGieyXYlc3ytD27xPZM98IqL+QtZn1v8KWtfuzSu6n5HxMn/fNxvrqN22Z2WhVxdGxhopt1C/M8b09Ozya2XxdSWyZ75P45YDgZfao1/F2r16qE/2K/iyFfyDj4etaznz6fW1Uny9hfplv4IvW8FaiGlO9X8I1O7bI3tUll8vxdcVb4v6qHqoT/Yr+LLqTnrXt/NUX98nsqu/lcXWtdzzsVKbxdevJLv2yJzs/XhFqN37WrvF15Wjdvn1UrulVxe0v9URewv18f169haZz6zdMtN3ZLwncPs/BIra/a+S2T1Ru+9rfaTs6xZffzut+Gg585m1W2Z8/K8gZV+3+Dp8DzHN4UDw2S/C+2T1UT+L72t9pOzrii3fQev6vk3rI3bv44l8fZ+j9juIrp3NZ2Te1rbKf5XdYm09/6i/JWv/1h75rRpz1t4i84nsI+M9gcsPBIK0qRQt218rS2ZXbLv10bK32bqgtqjt7UTxiOKkNmuPfBTrr3Zf99h266Nlb7N1QW1RG3wPMc2pciAQ/DrxeY3so2WVEtkstt36ZHYla9eyt9m6oDZvv5re9e08rW9kt+2Cb/dEbVkfa7dtke0OouvbuamUyGbx9lX+q+zKjH82hpK1j9i9j9RVESN276PjfWvPyPwi++iYd3PageBbqgTwbZAXGIVnJafSgQD+gWd6D8hjH2K0jiqx5EAAU5AXGIVnJYcDQU14pveAPPYhRuuoEsv0QCANM5IbRgghq2ivQHUU5RQhhNCcov21iqaPM9IJ9qdKnnke74cc5LCOakI89oA89iFG66i+33MggJDqDzZcBznIYR3VhHjsAXnsQ4zWUX2/50AAIdUfbLgOcpDDOqoJ8dgD8tiHGK2j+n7PgQBCqj/YcB3kIId1VBPisQfksQ8xWkf1/Z4DAYRUf7DhOshBDuuoJsRjD8hjH2K0jur7PQcCCKn+YMN1kIMc1lFNiMcekMc+xGgd1fd7DgQQUv3BhusgBzmso5oQjz0gj32I0Tqq7/ccCCCk+oMN10EOclhHNSEee0Ae+xCjdVTf7zkQQEj1BxuugxzksI5qQjz2gDz2IUbrqL7fcyCAkOoPNlwHOchhHdWEeOwBeexDjNZRfb/nQAAh1R9suA5ykMM6qgnx2APy2IcYraP6fs+BAEKqP9hwHeQgh3VUE+KxB+SxDzFaR/X9/kcaEEIIIYQQQu8U/xBASJU88zzeDznIYR3VhHjsAXnsQ4zWUX2/50AAIdUfbLgOcpDDOqoJ8dgD8tiHGK2j+n7PgQBCqj/YcB3kIId1VBPisQfksQ8xWkf1/Z4DAYRUf7DhOshBDuuoJsRjD8hjH2K0jur7PQcCCKn+YMN1kIMc1lFNiMcekMc+xGgd1fd7DgQQUv3BhusgBzmso5oQjz0gj32I0Tqq7/ccCCCk+oMN10EOclhHNSEee0Ae+xCjdVTf7zkQQEj1BxuugxzksI5qQjz2gDz2IUbrqL7fcyCAkOoPNlwHOchhHdWEeOwBeexDjNZRfb/nQAAh1R9suA5ykMM6qgnx2APy2IcYraP6fs+BAEKqP9hwHeQgh3VUE+KxB+SxDzFaR/X9ngMBhFR/sOE6yEEO66gmxGMPyGMfYrSO6vv9jzQghBBCCCGE3in+IYCQKnnmebwfcpDDOqoJ8dgD8tiHGK2j+n7PgQBCqj/YcB3kIId1VBPisQfksQ8xWkf1/Z4DAYRUf7DhOshBDuuoJsRjD8hjH2K0jur7PQcCCKn+YMN1kIMc1lFNiMcekMc+xGgd1fd7DgQQUv3BhusgBzmso5oQjz0gj32I0Tqq7/ccCCCk+oMN10EOclhHNSEee0Ae+xCjdVTf7zkQQEj1BxuugxzksI5qQjz2gDz2IUbrqL7fcyCAkOoPNlwHOchhHdWEeOwBeexDjNZRfb/nQAAh1R9suA5ykMM6qgnx2APy2IcYraP6fs+BAEKqP9hwHeQgh3VUE+KxB+SxDzFaR/X9ngMBhFR/sOE6yEEO66gmxGMPyGMfYrSO6vs9BwIIqf5gw3WQgxzWUU2Ixx6Qxz7EaB3V9/sfaUAIIYQQQgi9U/xDACFV8szzeD/kIId1VBPisQfksQ8xWkf1/Z4DAYRUf7DhOshBDuuoJsRjD8hjH2K0jur7PQcCCKn+YMN1kIMc1lFNiMcekMc+xGgd1fd7DgQQUv3BhusgBzmso5oQjz0gj32I0Tqq7/ccCCCk+oMN10EOclhHNSEee0Ae+xCjdVTf7zkQQEj1BxuugxzksI5qQjz2gDz2IUbrqL7fcyCAkOoPNlwHOchhHdWEeOwBeexDjNZRfb/nQAAh1R9suA5ykMM6qgnx2APy2IcYraP6fs+BAEKqP9hwHeQgh3VUE+KxB+SxDzFaR/X9ngMBhFR/sOE6yEEO66gmxGMPyGMfYrSO6vs9BwIIqf5gw3WQgxzWUU2Ixx6Qxz7EaB3V93sOBBBS/cGG6yAHOayjmhCPPSCPfYjROqrv9z/SMKOfnx+EHqXoOUUIjStaVwjtoOh5Rwj9rel/CGSB/cv/+vdoc1XJ8+95wq3IRgIxVWIj6+j//vf/gv5VxGMP8X7o84v9exlVYpnNkwMBClUlz2z498MLJadKbPgA/hTx2EO8H/r8Yv9eRpVYZvPc5kAg8/KK/Hr6pu9OqhKD3/OEW+GFklMlNrKOog+qGeneaRX59fRN31XS6+tcvLw/yhXF7ao4yjWgzS/272VUiWU2z+nV8nuBBR9md0o3l55tREf77aYqMfg9T7gVXig5VWIj6yj6oBqV7ps924hsv6NjfKvW9e+aU1VpvGzMroqhXAPa/GL/XkaVWGbznF4tvxdY8GF2p3Rzidpm9e1YK+dyp6rcw+95wq3wQsmpEhtZR9EH1ah034vaZrVyrKPS60dzuXp+V18v09F5aD/b35bPlFwD2vxi/15GlVhm85xeLb8XWPBhdqd0c4naVOoT+fo2257Zs7ZePev3ND11Xl6/5wm3wgslp0psZB1FH1Sj0r0salOpT+Tr27Tdllt+UZvaj0j7R2N5m9Z7dts22i+qj/b1Up/Z/lFb5q92q8jHljOfyG6lPr3+0OYX+/cyqsQym+f0avm9wIIPszulm0DUFsn6+76+bmXbMj9vn60/RU+cU6Tf84Rb4YWSUyU2so7sB9asdB+L2kS+3dZH22x5pu2IsnG9zbePtnnZNu/n6162fba8qi2qR3YtR7aW/2g5aoM2v9i/l1Elltk8p1fL7wUWfJjdKd0AojaV+lhZu/fr9fNt3na0/hQ9cU6Rfs8TboUXSk6V2Mg60g+qI9J9LGoT+XZbH22z5Zm2I8rG9TYte0V9s7rVSD9rs/K+vbKX92uNMVKP7FqObC3/kbKXtkGbX+zfy6gSy2ye06vl9wILPszulG4Amc23r2izsnbvM1t/ip44p0i/5wm3wgslp0psZB3JB9RR6T6W2Xz7kTZbnmk7omxcb4vaVb7N1o+29eqzZS/fZuuttqie2bWutqz9SNlL7NDmF/v3MqrEMpvn9Gr5vcCCD7O7pZuC1Wj7kbbI5vv4sm+P2p6ip87L6/c84VZ4oeRUiY2so+iDaka6n1m12ltt2m7LLb+oTe1HpP39mCrvG7V5u21rtduy9/V1K++XlaP+3j5b93Yr3xb5W1tkb5VtPbJDm1/s38uoEstsntOr5fcCCz7M0F6qkmc2/PvhhZJTJTb2I6qKZM5nzXvFuGfOD41J4g9tfrF/L6NKLLN5ciBAoarkmQ3/fnih5FSJTYUPV5mjV+S3QivGPnuOqC+JP7T5xf69jCqxzOb5Iw0z0k0Ooacoek4RQuOK1hVCOyh63hFCf+vQPwTRSRztJcnzf/6P//HxknnCvfz6/xsJxFSJDevoE+KxB+SxD/v3OqrEMpsnBwIUSvIcfYA/TWz49/OLF0pKldiwjj4hHntAHvuwf6+jSiyzeW5zIJB5eUV+q3T2+HdL7s9/eNt6ZrtaMge4l1+8UFKqxOasdSTjqixn279l9Xh3Y+OkUmxZiWwV2eU+zoT9ex1VYpnNc3q1yAKLPiDvVjQvtR2Zc6/PN2NXkNyX//C29cz2jY6MJ33gXn7xQkmpEpsz1pEfU+tn21ewcqwnEN1PFkdhl/vfLY9nwP69jiqxzOY5vVpkgUUfkHcrmteZc31qHFZJ7s9/eNt6ZrtaMge4l1+8UFKqxOaKdZRd42z7EVaO9QSi+1Fbq606u+XxDNi/11Elltk8p1eLLLDoA/JuRfNSm22Tsqpn821Ze8vPt43YnyCZk//wjhS1e9uoT2S3tsguv3Avv3ihpFSJzZnrSNdrxNn2o6we726i+1Gb/EbagV3u40zYv9dRJZbZPKdXiyyw6APybkXzUpv/tfK2Xp+sPfPzyvyfJpmf/xC3dWvLfKM+qsgn65fZ1Qb38osXSkqV2Fyxjvw1smuusn/DGWPeidyPl2LLSmSryC73cSbs3+uoEstsntOrRRZY9AF5t6J5qc22SdnXtWwV9Y3sPT8tW3m71p8kmZf/8LZ1a8t8I7uV94lsvi5lX4d7+cULJaVKbK5YR/Ya2fVW2b/lrHHvIroftbXaqrNbHs+A/XsdVWKZzXN6tcgCiz4g71Y0L7XNtHn7aHvPz9t7trslc9KPbv3wtnVry3ytfcYn841s8gv38osXSkqV2JyxjvyYWs+utcq+gjPHvoPoftTWaqvObnk8A/bvdVSJZTbP6dUiCyz6gLxbMi8v2+Z9tC2za9m2Ze3217dr2crb1O9JknlFH+CZTe/F27TsfbTN+viy9WvZ4F5+8UJJqRKbs9aRXbOKtdm2VfYVrBzrCUT3o7ZWW3V2y+MZsH+vo0oss3lOrxZZYNEH5K562/2q5L71o/vJYsO/n1+8UFKqxIZ19Anx2APy2If9ex1VYpnNkwNBR2+7X5Xcd/QB/jSx4d/PL14oKVViwzr6hHjsAXls82/+079FJ+jpZO+lH2mYkSwwhJ6k6DlFCI0rWlcI7aDoeUd/FH3Mou8VxbqCDv1DAPtTJc88j/cjGwnEVIkN6+gT4rEH5LGNfsDCGqrEM3svTa8WFtg7qJJnnsf74UCQw4GgJsRjD8hjGw4Ea+FAcDMyHz+nyAZzjMZPY239rc23WbL2zB4x4gPnwoEghwPBJ/46rbqUVRGZfQVnjW3vaeQaR+cx2s/ORXU2eo0rrwUxHAjWwoHgZmQ+fk6R7S6eFq9RRuYdxT0ismd9R8dUeu1wPhwIcjgQ/EHGV43WLVHd21ZyxtjRmL3rHJ3HaL8jc5rFjqfl1dfIuOo6VeFAsBYOBDfjNxj/m3HmfZw59lWM3IP3ifpk42R9R8a09NrhfDgQ5HAg+KS3vrN5WLuWM98VnDH2kTGPzmO0X+R3xr3fxU73cgYcCNbCgeBmdD7ZryBllZLVM5uVJbLbemS3NiGz38nIXKL78FhbVha0ntkzeu1wPhwIcjgQfNJb31Hd2rLyas4aW+9HZYnsvuzbLbbd+kQ2pWeL+vo+Wre+1seXfbuQ2b9l9Xi7wYFgLRwIbsbOJytb1N7y7fl4f6XVz/fpjXE3I/Po3VNrjMx3Zgyh1w7nw4EghwPBJ731nc1D7bY9813BmWNbZu7X4u1ZfcTPS7FlQevf2pVevxWsHGtHOBCshQPBzdj5tMpWalN8u7bpr9AqW6lNiWwe7at6AiPz8D69uiXznRlD6LXD+XAgyOFA8ElvfWfzULv8ep3BWeN67HXsPam9165kdeuvsvi6oDbbR6V2y4xdylZqs/j6N6wca0c4EKyFA8HNZPNRu2+P7L0xhKjs+0X2GV/B1+9iZB69ubfGyHxnxhB67XA+HAhyOBB80lvfWu/5CZFtFWeM3boH3+btWbvS658Rtff6WruUM39v77Urvv4NK8faEQ4Ea+FAcDPZfKxdylZK5qOMlq0ULXub9xOs3bfdxeg8WvP2tqge9c3sESM+cC4cCHI4EHzir9OqS1kVkdlXcNbY9p78NaI26xO1W7L2yKb0bFlfa/O/SmSXspUS2Vawerzd4EDwTrY9EMA5VMkzz+P9cCDI4UBQE+KxB+SxDQeCNWgcrZ4MBwKYokqeeR7vhwNBDgeCmhCPPSCPbSp8vFbAHgQqxDQ9EEjDjGSBIfQkRc8pQmhc0bpCaAdFzzv6o+hDFs1JiOxRvJ+u6eOzLDDYnyp55nm8H9lIIKZKbFhHnxCPPSCPbaIPWTSnLI5PJnsvTa8WFtg7qJJnnsf74UCQw4GgJsRjD8hjH/bv7+FAUBi5By/4ZDYm1n8krplPZs8Y9YPz4IWSw4HgD358XePZda3d+qqUyLaC1ePNEt3TGfe5O8SrD/v3OqrEkgOBIbuH1r29bWMZvV/xU2ndEo2T+Yz09Yz4wLnwQsnhQPBnbDu+v1ZUb/krvXG+YeVYR5DrR/d397yUp8yjR5V53gn79zo4EBSETaLPbIzU3/cbGWdFX7gPXig5bz8QZGvbYtsi/1Zfy6jfCCvHOoKPg//NOHPeZ459FhXnfDXs3+vgQFAQuQcrxZdte6tNyewVmb0H9ff9MrsgNmvP+rYY8YFz4YWS8+YDQWttC2LLfHzZypPZv2H1eLPo9bNfQcoqJatnNitLZLf1yG5tQma/kjuvXQX273VwIChIdg9qj9qztt5YVZmd/2x8LCv6wn3wQsnhQPCH1vjaNuvvafWZZeVYR8hi0bv3lm/Px/srrX6+T2+Mq7nrupVg/14HB4KCjGxaUvZ1+xuhfVSVmZ2/+vt+I+Os6Av3wQsl5+0HAq8ItXtftXtm7UdYOdYR7PVbZSu1Kb5d2/RXaJWt1KZENo/2Vd3BXdetBPv3OjgQFCS7h8iuNv+r9OxVmZ3/TBwyn5G+nhEfOBdeKDlvPhBY7Pgj63zEf2Sco6wc6wjZ9Xv3bu29MYSo7PtF9hlfwdev4q7rVoL9ex0cCAqS3YPa5Vel+LJvF6zdt1Vjdv7WP4qBHy/yETJ7xqgfnAcvlBwOBH/w4+saz6476p/Zv2X1eLNk17d2vW+Vkvkoo2UrRcve5v0Ea/dtV3HXdSvB/r0ODgSwJVXyzPN4P7xQcjgQ1IR47AF57MP+vQ4OBLAlVfLM83g/vFByOBDUhHjsAXnsw/69jvIHAmmYkSwwhJ6k6DlFCI0rWlcI7aDoeUcI/a3p47MsMNifKnnmebwf2UggpkpsWEefEI89II992L/XUSWW2TynVwsL7B1UyTPP4/3wQsnhQFAT4rEH5LEP+/c6OBA8HJmvF/Q5EiffpzdG5K8aZcYXzoEXSs6bDwR2Pas8kU3w9tYYQmY/yurxrsDGSPV2iEEf9u91cCB4MNlce/cweo87bzYz9ya+qqge4du9b6uvZdQPzoMXSs6bDwSeaI1H1/X2qJ/F+69g9XhXkM25dS8V73OG3e9vBezf6+BA8GCObJDwhyMx8n168bfto309o35wHrxQcjgQ/CFb3yN272PJxvmW1eNdQcU5nw0x6cP+vQ4OBA8mm6vafbu3y28kxZd9u5DZn86R+Ub3bn+FkbLg6xmjfnAevFByOBD8IVvro2UrJSuvYPV4V6DxUSm+bNtbbUpmr0DFOV8N+/c6OBA8mGyuavft3m7bo3LkJ/i6ktmfyJG5jsTB2rKyEPWNGPWD8+CFksOBoL22Z8uC1ls+37J6vCvI5hzFS8naemNVodp874D9ex0cCB5Mtsn5X6XVHpUjP4+0WVXhyFx9n2gMjYOV2i2+njHqB+fBCyWHA0G8tr16dou1e61i5VhXkc3Z2n2ctJz1FbSPqhLV5nsH7N/r4EDwYKK52k3Ntkd23660/ISevQJH5jp7v7Z9tq8y6gfnwQslhwNBe+yszdq9T9SndY0jrB7vCrI5t+Llf5WevQrV5nsH7N/r4EDwcGS+XhZry36FqOxtKou1+7Ync2Suvo/Ws7Eif9UoM75wDrxQcjgQtMfO2rxd6qqIzH6U1eNdQS828qtSfNm3C9bu255OtfneAfv3OjgQFIRNok+VGJHL++GFksOBoCbEYw/IYx/273VwIIAtqZJnnsf74YWSw4GgJsRjD8hjH/bvdZQ/EEjDjGSBIfQkRc8pQmhc0bpCaAdFzztC6G9NH59lgcH+VMkzz+P9yEYCMVViwzr6hHjsAXnsw/69jiqxzOY5vVpYYO+gSp55Hu+HF0oOB4KaEI89II992L/XwYHg4ch8vSy+/i2rx7uL2fuw/lJWZWQ+mT1j1A/OgxdKDgeCP/jxdY1n1/3W/1tWj7caGw+Vxde/ZfV4V1F13lfC/r0ODgQPJ5uv2lfejx2rWpw8o/MXP5XWLdE4mc9IX8+ID5wLL5QcDgR/xrbj+2tF9W/8V7B6vNVk81P7yvnbsZ4eF0+1+d4B+/c6OBA8nN58V97PTpvP7L1k/iPjqI/3nekL98ELJeftB4JsbVts2xn+R1g93mp681s5/6fHokXluV8F+/c6OBA8HJmvlaJlb/N+QmRv2bSsqN3ans7sXCN/a8vGa/lkfSwjPnAuvFBy3nwgaK1tQWyZzwr/b1g93mo0FipFy97m/YTI3rJpWVG7tT2NJ8/tKbB/r4MDwcPJ5qt2/6tkdmHEN+onZPanMTtP7z/Sv9fnyBhwPbxQcjgQ/KE1vrad5X+E1eOtJpufj433y+zCiG/UT8jsd/PUeT0J9u91cCB4OL0NzP8qti5lX7doPfORslUFZudp/Uf6Rj7ednQcuBZeKDlvPxB4Rajd+6rdo3bvq/YVrBzrDLL5qd3/KrYuZV+3aD3zkbLVE3nqvJ4E+/c6OBA8nGy+ave/StSv52vtPd+nMzvP7H4jMh9v/2YsuA5eKDlvPhBY7Pgj6/wb/xWsHm812fzU7n+VqF/P19p7vk/jqfN6Euzf6+BA8HCy+ardtktZpUQ2IbK3ylYVmJ2n+tv7VKld8e1Z2wijfnAevFByOBD8wY+vazy77rf+37J6vNX04mDbpaxSIpsQ2Vtlqyfy1Hk9CfbvdXAggC2pkmeex/vhhZLDgaAmxGMPyGMf9u91cCCALamSZ57H++GFksOBoCbEYw/IYx/273WUPxBIw4xkgSH0JEXPKUJoXNG6QmgHRc87QuhvTR+fZYHB/lTJM8/j/chGAjFVYsM6+oR47AF57MP+vY4qsczmOb1aWGDvoEqeeR7vhxdKDgeCmhCPPSCPfdi/18GBwPDUxTc6L/Hzqo7ew+y9fOMvZVWEbfd+ka3FqB+cBy+UHA4Ef+Ovpes9m8Os/wrs2Gde5xtG56WxsqqO3kPvXna417Nh/14HBwLDqsW3ehGPjhf5rZ7Llejcj9zDTMxUWrdE40Q2YaSvZ8QHzoUXSg4Hgk/kOvZa/rpRfcZ/Fa1rHmX1XEfHi/xWz+VKdO4j91D5Pq+C/XsdHAgMT118o/OK/N66oczed+Y/E1NvH5nDiA+cCy+UHA4E/6DXaF3Lts36rySax9MYnVfk99R7Ws1b7vMb2L/XwYHA0GtTWaxd26yPb1Myu2LbrU9kU1o230fr1iZYu7bZsuDbBWuzspxtt7TaIrJrKL5spdiy4OsRIz5wLrxQcjgQ/KG1zgWxZT4j/qvpXV/ReXgfa9c26+PblMyu2HbrE9mUls330bq1CdaubbYs+HbB2qwsZ9q9D/wN+/c6OBAYsjZv13rPnrV7en6j40ndS8nKgtZH7ZbIJytbon7Cav9RvhlHfbzvTF+4D14oORwI/mDHb11L22b9VzNyfW/Xes+etXt6fqPjSd1LycqC1kftlsgnK1uifsJR/6wf/AP79zo4EBiyttHF6u2+3SJtVpasbv1VFl+32Las34zdSm1Kq2yltowRf19XMnvGN+Ooj/ed6Qv3wQslhwPBH2R8rwi1e1+1ezL7t9hxR6+t9Z7dt1ukzcqS1a2/yuLrFtuW9ZuxW6lNaZWt1JYx4p/Z4W/Yv9fBgcCQtY0uVm+f7aeM9vO02m3b6PiRfdYnahdW2z2ZPWNm/MxnpK9nxAfOhRdKDgeCv7HXGlnzs/4raF1TyebSs8/2U0b7eVrttm10/Mg+6xO1C2fb4W/Yv9fBgcAgbV5KZBOsXdusj29TrN23CVl7ZFMim+LbsnGsXdtmfVplKyWyCdZu2yKbp9UW0Rvfjxf5CJk9Y9QPzoMXSg4Hgr/x19L1ns1h1n8Fdmx7PZUS2QRr1zbr49sUa/dtQtYe2ZTIpvi2bBxr17ZZn1bZSolsgrXbtswGbdi/18GBYCG7Ld4r72f1tarkYrdnpiK8UHI4ENRkZTx2i+2V9/PttXiu+7B/r4MDwRfIWFbVuet+zrjelfP/hirz3BleKDkcCGryTTykr1V17rqfFde7cr5VYf9eR/kDgTTMSBcpQk9R9JwihMYVrSuEdlD0vCOE/tb08Vk6wf5UyTPP4/2QgxzWUU2Ixx6Qxz7EaB3V93sOBBBS/cGG6yAHOayjmhCPPSCPfYjROqrv9xwIIKT6gw3XQQ5yWEc1IR57QB77EKN1VN/vORBASPUHG66DHOSwjmpCPPaAPPYhRuuovt9zIICQ6g82XAc5yGEd1YR47AF57EOM1lF9v+dAACHVH2y4DnKQwzqqCfHYA/LYhxito/p+z4EAQqo/2HAd5CCHdVQT4rEH5LEPMVpH9f2eAwGEVH+w4TrIQQ7rqCbEYw/IYx9itI7q+z0HAgip/mDDdZCDHNZRTYjHHpDHPsRoHdX3ew4EEFL9wYbrIAc5rKOaEI89II99iNE6qu/3HAggpPqDDddBDnJYRzUhHntAHvsQo3VU3+85EEBI9QcbroMc5LCOakI89oA89iFG66i+3/9IA0IIIYQQQuid4h8CCKmSZ57H+yEHOayjmhCPPSCPfYjROqrv9xwIIKT6gw3XQQ5yWEc1IR57QB77EKN1VN/vORBASPUHG66DHOSwjmpCPPaAPPYhRuuovt9zIICQ6g82XAc5yGEd1YR47AF57EOM1lF9v+dAACHVH2y4DnKQwzqqCfHYA/LYhxito/p+z4EAQqo/2HAd5CCHdVQT4rEH5LEPMVpH9f2eAwGEVH+w4TrIQQ7rqCbEYw/IYx9itI7q+z0HAgip/mDDdZCDHNZRTYjHHpDHPsRoHdX3ew4EEFL9wYbrIAc5rKOaEI89II99iNE6qu/3HAggpPqDDddBDnJYRzUhHntAHvsQo3VU3+85EEBI9QcbroMc5LCOakI89oA89iFG66i+33MggJDqDzZcBznIYR3VhHjsAXnsQ4zWUX2//5EGhBBCCCGE0DvFPwQQUiXPPI/3Qw5yWEc1IR57QB77EKN1VN/vORBASPUHG66DHOSwjmpCPPaAPPYhRuuovt9zIICQ6g82XAc5yGEd1YR47AF57EOM1lF9v+dAACHVH2y4DnKQwzqqCfHYA/LYhxito/p+z4EAQqo/2HAd5CCHdVQT4rEH5LEPMVpH9f2eAwGEVH+w4TrIQQ7rqCbEYw/IYx9itI7q+z0HAgip/mDDdZCDHNZRTYjHHpDHPsRoHdX3ew4EEFL9wYbrIAc5rKOaEI89II99iNE6qu/3HAggpPqDDddBDnJYRzUhHntAHvsQo3VU3+85EEBI9QcbroMc5LCOakI89oA89iFG66i+33MggJDqDzZcBznIYR3VhHjsAXnsQ4zWUX2/50AAIdUfbLgOcpDDOqoJ8dgD8tiHGK2j+n7/Iw0IVdXPzw9Cj1b03CKEEEJPEv8QQEiVPMsH1//4rwg9U/J8VoB9/RPisQfksQ8xWkeVWGbz5EAAIVXyzIEAPVkcCGpCPPaAPPYhRuuoEstsnhwIIKRKnv2BQOqRrA+a09EY2vj7MXx9Rt/0vVoyzwqwr39CPPaAPPYhRuuoEstsnhwIIKRKnv2HYfSxGNnQuI7EL+pjbVH7iI72u0sy1wqwr39CPPaAPPYhRuuoEstsnhwIIKRKnv3HYfTBGNnO1NXXy7RqHkfG6fU5MqboaL+7JHOtAPv6J8RjD8hjH2K0jiqxzObJgQBCquTZfxxGH4zepvWe3baN9ovqo3291Ge2f9SW+avdy/tZ38xu1WoT2f6Rb9bWs1l7r+0KyTUrwL7+CfHYA/LYhxito0oss3lyIICQKnn2H3nRh5+1+fbRNi/b5v183cu2z5ZXtUX1zG7rrTarzK7SdvVp+bf8WnXfdofk+hVgX/+EeOwBeexDjNZRJZbZPDkQQEiVPPsPvugj0Nq07BX1zepWI/2szcr79spe3q81xkg9s9u6lr3UN+oTybdndatRP1HUrrYrJdetAPv6J8RjD8hjH2K0jiqxzObJgQBCquTZf+hFH3/WFrWrfJutH23r1WfLXr7N1lttUT2z27pvyxT5WZtvX9HW0qjfask1K8C+/gnx2APy2IcYraNKLLN5ciCAkCp59h95+uHn1fJp9W3103Zb9r6+buX9snLU39tn697u5f2sb2b38n7Wd7RuFflFvj37lZLrVoB9/RPisQfksQ8xWkeVWGbz5EAAIVXyvPJD784PR7SnOBDUhHjsAXnsQ4zWUSWW2Tw5EEBIlTxzIEBPFgeCmhCPPSCPfYjROqrEMpvnjzQgVFX6EY/QUxU9twghhNCTxD8EEFIlz/LBBfdCDnKqxIZ9/RPisQfksQ8xWkeVWGbz5EAAIVXyzMfo/ZCDHA4ENSEee0Ae+xCjdVSJZTZPDgQQUiXP0QeX2KyUyLfHSJ/oWsqRa1bD36ONh0qxZSWy7UKVe2Nf/4R47AF57EOM1lElltk8p99WPDzvoEqe/QdX64Nz9uNsxD+7vvyqdieLgUVtrbYdqXJv7OufEI89II99iNE6qsQym+f024qH5x1UybP/4Gp9gM1+nI34964/e82KjNyz2lptO1Ll3tjXPyEee0Ae+xCjdVSJZTbP6bcVD887qJJn/8HV+gDTNvmN+nl7Vvc2S6++IyP3rDb5jbQrVe6Nff0T4rEH5LEPMVpHlVhm85x+W/HwvIMqefYfXK0PMP/xqeVsjMhX6fVVfH1Honv2UmxZiWy7UOXe2Nc/IR57QB77EKN1VIllNs/ptxUPzzuokmf/wdX6AMt85ddL7Ypv1zb9VXr1HRm5Z7W12nakyr2xr39CPPaAPPYhRuuoEstsntNvKx6ed1Alz/6Dq/XBmflGfQRrH/ERevUdGblntbXadqTKvbGvf0I89oA89iFG66gSy2ye028rHp53UCXP2QemleJ9fduIv/cRMrsQ2XYjiodHbW+LUZV7Y1//hHjsAXnsQ4zWUSWW2Tyn31Y8PO+gSp53/pisAjnI4UBQE+KxB+SxDzFaR5VYZvPkQAAhVfLMx+j9kIMcDgQ1IR57QB77EKN1VIllNs8faUCoquSDC6EnK3puEUIIoSeJfwggpEqe5YML7oUc5FSJDfv6J8RjD8hjH2K0jiqxzObJgQBCquSZj9H7IQc5HAhqQjz2gDz2IUbrqBLLbJ4cCCCkSp6jDy6xWSmRb4+RPtG1hMy+G637Vr2VKvfOvv4J8dgD8tiHGK2jSiyzeU6/rXh43kGVPPsPrugDTG2zH2cj/tn1M/uOjNxrFpfdqXK/7OufEI89II99iNE6qsQym+f024qH5x1UyfPIx6gy+3E24j96/dlrV2IkBkfuf4eYVbkH9vVPiMcekMc+xGgdVWKZzXP6bcXD8w6q5HnkY1TRNvmN+nl7Vvc2i68LkW0nZmJgf62f1iObMuLzNJ48Nwv7+ifEYw/IYx9itI4qsczmOf224uF5B1Xy7D+4Wh9g/uNRy9kYka/S66v4+o6M3LPa/K+Q9Z/1eSJPn5/Cvv4J8dgD8tiHGK2jSiyzeU6/rXh43kGVPGcfihGZr/x6qV3x7dqmv4qt+7ZdacVAUZv/FaTspXbFloXI54k8fX4K+/onxGMPyGMfYrSOKrHM5jn9tuLheQdV8px9KFqyj8fMrlj7iI/QG3NHshhYfFysT+QvtHyicZ7I0+ensK9/Qjz2gDz2IUbrqBLLbJ7TbysenndQJc/RB5fYrBTv69tG/L2PENmtzbfthr83f9+2XcvWJkS+gq1HPt7/aTx9fgr7+ifEYw/IYx9itI4qsczmOf224uF5B1XyXOWDa2fIQQ4HgpoQjz0gj32I0TqqxDKbJwcCCKmSZz5G74cc5HAgqAnx2APy2IcYraNKLLN5/kgDQlUlH1wIPVnRc4sQQgg9SfxDACFV8iwfXHAv5CCnSmzY1z8hHntAHvsQo3VUiWU2Tw4EEFIlz3yM3g85yOFAUBPisQfksQ8xWkeVWGbz5EAAIVXyHH1wic1KiXx7jPSJriVk9t3I7ttSLQ4612/nXOWe2dc/IR57QB77EKN1VIllNs/ptxUPzzuokmf/wRV9gB39uBvxz66f2XckutcR21PRea6Yb5V7Zl//hHjsAXnsQ4zWUSWW2Tyn31Y8PO+gSp79B1frA2z242zEf/T6s9euRBaD7HcVq8c7gwpzFNjXPyEee0Ae+xCjdVSJZTbP6bcVD887qJJn/8HV+gDTNvmN+nl7Vvc2S1T3tt3IYpD9ClJWKdbm7RatR34tm7ULq+wtZnzvhH39E+KxB+SxDzFaR5VYZvOcflvx8LyDKnmOPtoy/MeclrMxIl+l19eT2XegFYOsbFF7Ns6I/Zu+gq8rs/6eUb+7YV//hHjsAXnsQ4zWUSWW2Tyn31Y8PO+gSp5nPtQyX/n1Urvi27VNfxVfVzL7DrRi0Cpbqc0yY5eyl9otmd2i/VVqs/h6xqjf3bCvf0I89oA89iFG66gSy2ye028rHp53UCXPIx9qast8oz6CtY/4CNmYWf8dGL3XXmxG7FLO7BHeHvUVjtp7jPrdDfv6J8RjD8hjH2K0jiqxzOY5/bbi4XkHVfIcfXCJzUrxvr5txN/7CLP23YjuO8LaNS4qtVlsPfOLfLJ2oecvWLtti2w9ZnzvhH39E+KxB+SxDzFaR5VYZvOcflvx8LyDKnmu8sG1M5VzcPbcORDUhHjsAXnsQ4zWUSWW2Tw5EEBIlTxzILifqjmQeXMg+AP7+ifEYw/IYx9itI4qsczm+SMNCFWVftQh9FRFzy1CCCH0JPEPAYRUybN8cMG9kIOcKrFhX/+EeOwBeexDjNZRJZbZPDkQQEiVPPMxej/kIIcDQU2Ixx6Qxz7EaB1VYpnNkwMBhFTJc/TBJTYrJfLtMdInupblyHUr4e/PxkM1y5E+T6TKfbCvf0I89oA89iFG66gSy2ye028rHp53UCXP/oMr+gBT2+zH2Yh/7/pSn71uNXoxEGZisFO8qtwL+/onxGMPyGMfYrSOKrHM5jn9tuLheQdV8jzyMarMfpyN+Leur+XZ61ajFQNlJgY7xavKvbCvf0I89oA89iFG66gSy2ye028rHp53UCXPIx+jirbJb9TP27O6t1m03vLZjSwGFhsX2671yKZEPkJkn7UpkY+Q2Uc52u9q2Nc/IR57QB77EKN1VIllNs/ptxUPzzuokufoAy7Df9hpORsj8lW+6bsbUQy8lKwsaH3WRxmxRf1HfI6yYowrYF//hHjsAXnsQ4zWUSWW2Tyn31Y8PO+gSp6zj7mIzFd+vdSu+HZt01/F2r12xd9b615tW9bP+3gpvi5EPhatex8vxddn+abvlbCvf0I89oA89iFG66gSy2ye028rHp53UCXP/oMr+gBTW+Yb9RGsfcRHiPyyvrswEgPFtmX9Wj4RkU80lhDZo/6eEZ+Io/2uhn39E+KxB+SxDzFaR5VYZvOcflvx8LyDKnmOPrjEZqV4X9824u99hMyuZPZdiOKREfmqlFGfEZsQ2Ud9vG2Wb/peCfv6J8RjD8hjH2K0jiqxzOY5/bbi4XkHVfJc5YNrZ8hBDgeCmhCPPSCPfYjROqrEMpsnBwIIqZJnPkbvhxzkcCCoCfHYA/LYhxito0oss3n+SANCVSUfXAg9WdFzixBCCD1J/EMAIVXyLB9ccC/kIKdKbNjXPyEee0Ae+xCjdVSJZTZPDgQQUiXPfIzeDznI4UBQE+KxB+SxDzFaR5VYZvPkQAAhVfIcfXCJzUqJfHuM9Mmu5bUr/t78ffv2jFG/SlS5J/b1T4jHHpDHPsRoHVVimc1z+m3Fw/MOquTZf3BFH2Bqm/04G/HPrj97rcpkMbD04jESr6MxPdpvBXdeewb29U+Ixx6Qxz7EaB1VYpnNc/ptxcPzDqrk2X9wtT7AZj/ORvyz689eqzJZDCy9eMzEq1Jsq8yVff0T4rEH5LEPMVpHlVhm85x+W/HwvIMqefYfXK0PMG2T36ift2d1b7No3fp6n93w9xfdr7VpTCKbkvnor7dnNi0rare2M7nqOt/Cvv4J8dgD8tiHGK2jSiyzeU6/rXh43kGVPPsPrtYHmP8Q1HI2RuSr9Pp6MvsORDHwUmxZ0PqMz4yvENkEXz+DK66xAvb1T4jHHpDHPsRoHVVimc1z+m3Fw/MOquR55iMv85VfL7Urvl3b9FfxdSWz78BIDNQmv15qV3y7tvlfwZaFlk/meyZXXGMF7OufEI89II99iNE6qsQym+f024qH5x1UyfPIR57aMt+oj2DtIz5CNmbWfwdG7jWLi2LtPZ+Wb8sn8z2TK66xAvb1T4jHHpDHPsRoHVVimc1z+m3Fw/MOquQ5+uASm5XifX3biL/3EWbtuxHdt8faNCbeZun5+PI3vmdy1XW+hX39E+KxB+SxDzFaR5VYZvOcflvx8LyDKnmu8sG1M+QghwNBTYjHHpDHPsRoHVVimc2TAwGEVMkzH6P3Qw5yOBDUhHjsAXnsQ4zWUSWW2Tx/pAGhqpIPLoSerOi5RQghhJ4k/iGAkCp55nm8H3KQwzqqCfHYA/LYhxito/p+z4EAQqo/2HAd5CCHdVQT4rEH5LEPMVpH9f2eAwGEVH+w4TrIQQ7rqCbEYw/IYx9itI7q+z0HAgip/mDDdZCDHNZRTYjHHpDHPsRoHdX3ew4EEFL9wYbrIAc5rKOaEI89II99iNE6qu/3HAggpPqDDddBDnJYRzUhHntAHvsQo3VU3+85EEBI9QcbroMc5LCOakI89oA89iFG66i+33MggJDqDzZcBznIYR3VhHjsAXnsQ4zWUX2/50AAIdUfbLgOcpDDOqoJ8dgD8tiHGK2j+n7PgQBCqj/YcB3kIId1VBPisQfksQ8xWkf1/Z4DAYRUf7DhOshBDuuoJsRjD8hjH2K0jur7PQcCCKn+YMN1kIMc1lFNiMcekMc+xGgd1ff7H2lACCGEEEIIvVP8QwAhVfLM83g/5CCHdVQT4rEH5LEPMVpH9f2eAwGEVH+w4TrIQQ7rqCbEYw/IYx9itI7q+z0HAgip/mDDdZCDHNZRTYjHHpDHPsRoHbX3+3/5l/8HVH2jHU3X1gIAAAAASUVORK5CYII=;" vertex="1" parent="1">
          <mxGeometry x="70" y="740" width="728.87" height="338" as="geometry" />
        </mxCell>
        <mxCell id="k7_yslUlbXB4682wcvTW-89" value="" style="endArrow=none;html=1;" edge="1" parent="1" source="k7_yslUlbXB4682wcvTW-86" target="k7_yslUlbXB4682wcvTW-86">
          <mxGeometry width="50" height="50" relative="1" as="geometry">
            <mxPoint x="380" y="910" as="sourcePoint" />
            <mxPoint x="430" y="860" as="targetPoint" />
            <Array as="points">
              <mxPoint x="330" y="890" />
            </Array>
          </mxGeometry>
        </mxCell>
      </root>
    </mxGraphModel>
  </diagram>
</mxfile>
